<?xml version="1.0" standalone="no"?>
<!DOCTYPE svg PUBLIC "-//W3C//DTD SVG 20010904//EN"
 "http://www.w3.org/TR/2001/REC-SVG-20010904/DTD/svg10.dtd">
<svg version="1.0" xmlns="http://www.w3.org/2000/svg"
 width="700.000000pt" height="700.000000pt" viewBox="0 0 700.000000 700.000000"
 preserveAspectRatio="xMidYMid meet">
<metadata>
Created by potrace 1.14, written by Peter Selinger 2001-2017
</metadata>
<g transform="translate(0.000000,700.000000) scale(0.100000,-0.100000)"
fill="#000000" stroke="none">
<path d="M3260 6810 c-26 -26 -26 -85 0 -127 l20 -33 -33 0 c-106 -1 -273 -14
-279 -23 -16 -26 5 -32 97 -29 l95 4 1 -44 c0 -23 2 -57 4 -75 4 -37 -22 -76
-66 -98 -26 -14 -30 -14 -49 5 -11 11 -20 31 -20 44 0 31 43 66 82 66 23 0 29
4 24 16 -3 9 -6 20 -6 25 0 14 -58 11 -89 -6 -60 -31 -60 -129 0 -179 37 -31
68 -33 103 -5 l26 20 1 -30 c2 -52 9 -65 39 -81 19 -10 20 -7 14 77 -6 87 -6
88 22 114 16 14 37 29 46 32 21 7 48 -17 48 -44 0 -26 -27 -89 -48 -112 -16
-18 -16 -20 3 -33 29 -21 34 -18 60 39 28 60 30 84 11 131 -25 60 -82 82 -129
51 -22 -14 -22 -13 -25 40 l-3 55 78 0 c43 1 95 3 115 6 46 7 45 10 53 -180 5
-115 9 -142 23 -153 9 -7 21 -13 25 -13 5 0 6 79 2 175 l-8 175 37 0 c32 0 36
3 36 25 0 23 -3 24 -38 20 -36 -4 -40 -2 -54 29 -22 45 -74 104 -109 122 -39
20 -85 18 -109 -6z m145 -60 c6 -5 21 -27 33 -49 l23 -41 -55 -1 c-31 -1 -66
-2 -78 -2 -49 -3 -70 105 -24 123 20 7 75 -9 101 -30z"/>
<path d="M4202 6711 c-21 -15 -22 -20 -11 -44 14 -32 17 -32 46 -9 22 17 22
18 5 44 -17 26 -18 26 -40 9z"/>
<path d="M2400 6672 c-37 -38 -39 -76 -6 -125 24 -35 24 -36 5 -42 -21 -7 -23
-13 -10 -34 5 -7 17 -11 27 -7 17 5 23 -10 59 -148 34 -135 42 -156 63 -166
14 -6 27 -9 29 -6 2 2 -14 75 -37 162 -22 87 -39 163 -37 169 3 6 29 17 58 24
30 8 59 16 65 18 6 2 15 -18 21 -44 7 -26 14 -55 18 -64 4 -12 -1 -18 -19 -23
-14 -3 -26 -11 -26 -16 0 -14 101 -63 111 -53 4 4 -3 53 -17 107 -14 54 -21
102 -17 106 4 4 27 12 50 18 l43 10 9 -37 c5 -20 23 -90 40 -155 17 -66 32
-121 34 -122 1 -1 14 -5 29 -9 l26 -7 -44 168 c-45 174 -45 183 -1 184 16 0
24 29 11 42 -3 3 -36 -2 -74 -12 -59 -15 -70 -16 -74 -3 -3 7 -41 30 -83 51
-62 29 -92 37 -150 40 -69 4 -74 3 -103 -26z m253 -46 c31 -15 57 -31 57 -34
0 -4 -57 -22 -127 -40 l-128 -33 -17 21 c-31 38 -19 97 22 114 37 14 137 0
193 -28z"/>
<path d="M3870 6621 c0 -15 10 -21 40 -26 40 -7 41 -7 34 -43 -11 -70 -12 -72
-46 -65 l-31 6 5 -46 c6 -55 76 -207 95 -207 19 0 17 9 -22 80 -19 36 -35 70
-35 75 0 6 14 18 31 28 30 16 32 16 57 -2 15 -10 44 -21 65 -25 42 -8 41 -7
23 -94 -13 -57 -12 -65 4 -85 10 -12 21 -20 24 -17 3 3 20 81 38 174 l32 167
32 -6 c24 -4 33 -1 38 11 4 10 3 20 -1 24 -8 7 -337 70 -367 70 -9 0 -16 -8
-16 -19z m215 -59 l40 -8 -3 -49 c-1 -27 -6 -52 -10 -56 -29 -29 -139 -3 -127
30 3 8 9 34 12 58 5 37 8 42 27 38 11 -3 39 -9 61 -13z"/>
<path d="M2012 6527 c-22 -13 -22 -14 -4 -30 15 -14 23 -15 49 -5 28 10 36 8
82 -21 28 -18 51 -37 51 -41 0 -4 -85 -50 -190 -101 -104 -51 -190 -96 -190
-100 0 -4 3 -14 6 -23 5 -13 15 -11 66 15 56 28 88 32 88 11 0 -5 -18 -17 -41
-27 -22 -10 -44 -26 -48 -34 -13 -24 5 -60 34 -67 21 -5 25 -12 25 -45 0 -32
5 -41 29 -54 29 -14 61 -19 109 -16 12 0 42 19 66 41 l44 40 16 -25 c10 -16
26 -25 41 -25 14 0 25 2 25 5 0 2 -34 69 -75 148 -41 80 -75 150 -75 156 0 6
18 20 40 31 l40 20 39 -77 c101 -198 107 -208 135 -211 14 -2 26 -1 26 2 0 4
-34 74 -76 157 -41 83 -74 152 -72 154 2 1 15 9 31 17 24 12 26 16 14 32 -13
17 -15 17 -45 2 l-31 -16 -69 50 c-71 51 -99 59 -140 37z m103 -307 l46 -91
-31 -44 c-45 -65 -119 -98 -134 -59 -12 32 -5 45 38 72 42 27 43 29 24 41 -17
11 -27 10 -59 -4 -21 -10 -45 -15 -53 -12 -29 12 -16 33 33 57 l50 23 -19 37
-19 37 32 16 c18 9 35 16 39 16 4 1 28 -40 53 -89z"/>
<path d="M4397 6521 c-3 -15 4 -23 33 -36 l38 -17 -21 -50 c-15 -37 -24 -47
-36 -42 -40 16 -46 10 -49 -45 -3 -59 23 -197 39 -207 20 -12 22 7 6 63 -30
109 -31 107 11 120 35 11 38 10 64 -17 14 -16 37 -32 51 -35 20 -5 26 -15 31
-47 14 -86 60 -128 141 -128 l35 0 -15 -36 c-13 -31 -13 -39 -1 -62 15 -27 15
-26 69 88 30 63 63 136 75 162 l20 47 41 -16 c23 -9 41 -21 41 -27 0 -6 -28
-71 -61 -145 -52 -112 -60 -138 -53 -160 5 -14 13 -25 18 -24 5 1 40 72 79
158 56 125 73 155 86 149 29 -12 55 -9 59 6 2 14 -132 80 -300 148 -4 2 -8 -7
-8 -21 0 -16 8 -28 25 -35 l25 -12 -24 -52 c-44 -100 -48 -106 -70 -112 -62
-17 -130 7 -146 50 -15 39 -13 42 33 37 85 -9 155 76 123 151 -18 42 -66 62
-105 43 -35 -16 -41 -69 -12 -107 24 -33 18 -42 -16 -29 -13 5 -39 9 -58 9
-21 0 -44 9 -64 26 l-30 25 22 47 c12 26 23 49 24 51 1 2 20 -4 43 -13 50 -20
56 -20 64 -1 4 12 -17 26 -89 60 -126 58 -131 60 -138 36z m334 -155 c7 -71
-51 -105 -67 -40 -5 21 -2 31 15 45 22 18 50 16 52 -5z"/>
<path d="M1443 6219 c-39 -25 -41 -33 -11 -46 18 -8 29 -6 49 9 l26 20 67 -33
c36 -18 66 -35 66 -39 0 -17 -15 -17 -57 1 -52 22 -81 24 -105 5 -23 -17 -23
-23 3 -36 17 -9 23 -8 33 5 9 13 20 16 44 10 18 -3 34 -10 36 -14 3 -4 -51
-50 -120 -101 -68 -52 -124 -97 -124 -100 0 -3 4 -11 9 -19 8 -12 13 -12 24
-3 12 10 22 2 57 -43 l42 -55 59 0 c33 0 59 -4 59 -8 0 -5 -9 -35 -20 -67 -11
-32 -19 -59 -18 -61 2 -1 14 -4 28 -6 23 -3 26 2 47 77 13 44 25 86 28 94 4
10 16 1 37 -28 27 -34 38 -41 66 -41 l34 0 -30 38 c-16 20 -66 84 -111 142
l-81 105 22 18 c54 42 49 45 153 -88 84 -110 100 -125 126 -125 16 0 29 2 29
6 0 3 -48 66 -106 141 l-107 136 26 19 c22 16 25 23 16 39 -10 19 -11 19 -40
-2 l-31 -22 -88 47 c-48 25 -91 46 -96 46 -5 0 -24 -10 -41 -21z m148 -292
c43 -59 46 -65 35 -92 -10 -25 -18 -29 -53 -31 -40 -2 -44 1 -87 56 l-46 58
48 36 c26 19 49 35 52 35 3 0 26 -28 51 -62z"/>
<path d="M5201 6157 c-6 -6 -11 -14 -11 -19 0 -4 41 -37 90 -74 50 -36 90 -69
90 -73 0 -5 -13 -24 -28 -43 l-28 -35 -79 58 c-86 62 -99 68 -109 43 -9 -24
-7 -97 4 -114 8 -12 14 -10 35 17 l26 33 49 -37 49 -37 -19 -25 c-86 -112 -88
-116 -76 -144 11 -27 12 -26 111 104 55 72 103 136 106 141 4 6 17 3 33 -7 24
-16 29 -16 42 -3 13 13 -2 27 -130 120 -104 76 -147 103 -155 95z"/>
<path d="M3412 5889 c-246 -29 -457 -119 -604 -257 -180 -170 -268 -371 -268
-611 0 -136 16 -220 63 -334 77 -189 209 -327 421 -441 125 -67 191 -81 386
-81 129 0 180 4 235 19 104 28 239 86 333 144 187 114 427 165 630 132 79 -13
236 -67 322 -110 182 -92 316 -224 404 -398 63 -124 116 -342 116 -477 0 -49
1 -51 55 -94 116 -93 250 -285 295 -424 7 -22 16 -35 20 -30 19 18 53 284 65
503 11 195 -23 523 -71 700 -123 446 -422 903 -794 1214 -444 371 -1123 601
-1608 545z m238 -238 c95 -33 191 -93 262 -165 124 -126 179 -254 186 -436 5
-136 -11 -217 -62 -322 -85 -171 -252 -305 -441 -353 -140 -35 -328 -11 -468
62 -97 50 -218 171 -270 270 -201 385 5 847 428 959 79 21 284 13 365 -15z"/>
<path d="M2562 5754 c-564 -220 -975 -545 -1236 -975 -113 -188 -248 -509
-300 -715 -54 -218 -61 -280 -61 -574 0 -244 3 -290 23 -403 46 -255 139 -535
235 -709 158 -288 410 -501 671 -568 110 -28 301 -28 412 0 303 76 554 333
614 630 25 121 27 325 4 414 -21 81 -101 248 -152 316 -100 131 -210 225 -362
310 -164 92 -278 195 -367 333 -62 95 -91 165 -119 287 -62 267 -35 500 83
710 61 108 200 254 327 344 l94 67 12 66 c24 142 96 305 184 422 66 86 69 91
60 90 -5 0 -60 -20 -122 -45z"/>
<path d="M5688 5737 c-15 -10 -14 -14 13 -48 l29 -37 -47 -41 c-45 -38 -48
-39 -66 -23 -16 14 -19 14 -27 2 -6 -8 -10 -34 -10 -58 0 -65 20 -64 96 4 96
86 88 83 128 42 l36 -37 -83 -73 c-127 -113 -125 -112 -139 -101 -28 22 -56
21 -62 -1 -9 -33 -8 -35 25 -38 22 -2 34 -10 40 -25 12 -33 -17 -46 -56 -27
-42 21 -67 59 -73 111 -6 54 -26 52 -30 -3 -5 -72 70 -174 128 -174 29 0 62
34 69 71 5 29 25 52 110 127 l104 92 22 -20 c12 -11 26 -20 33 -20 32 0 13 31
-84 138 -149 163 -136 152 -156 139z"/>
<path d="M1037 5588 c-100 -115 -114 -135 -101 -148 12 -12 18 -10 49 20 34
33 37 34 63 20 29 -17 42 -64 23 -83 -18 -18 -13 -27 24 -43 46 -19 115 -18
144 2 12 9 30 34 40 56 l17 40 32 -27 c28 -23 38 -26 63 -19 l30 9 -136 114
c-74 63 -135 117 -135 121 0 4 9 15 20 25 15 14 17 21 9 32 -6 7 -15 13 -19
13 -4 0 -59 -60 -123 -132z m144 -39 c63 -54 68 -68 45 -124 -22 -52 -116 -93
-100 -43 10 33 7 77 -7 94 -6 7 -29 19 -50 25 l-38 12 37 43 c20 24 40 44 45
44 5 0 36 -23 68 -51z"/>
<path d="M5976 5417 c-17 -12 -13 -21 47 -108 l66 -95 -71 -47 c-39 -26 -79
-47 -87 -47 -22 0 -88 56 -96 81 -13 39 45 75 83 51 6 -5 23 -23 36 -41 l24
-32 16 22 c14 20 13 24 -5 50 -48 67 -110 79 -153 29 -49 -59 -43 -129 13
-171 17 -13 31 -25 31 -29 0 -3 -13 -14 -30 -23 -23 -14 -30 -25 -30 -48 0
-16 2 -29 5 -29 3 0 65 40 138 88 72 49 137 91 143 95 7 4 23 -10 38 -33 l26
-39 -135 -88 c-127 -83 -135 -90 -135 -121 l0 -32 149 100 150 99 18 -25 c13
-17 24 -23 36 -18 9 3 17 9 17 13 0 6 -80 126 -248 368 -25 38 -31 41 -46 30z"/>
<path d="M844 5359 c-15 -30 -18 -31 -61 -24 -78 12 -143 -3 -181 -41 -60 -60
-30 -125 65 -142 l43 -7 -60 -92 c-56 -87 -58 -93 -40 -103 18 -10 26 -1 76
76 30 47 58 92 61 100 4 11 10 11 34 -2 16 -8 29 -20 29 -27 0 -6 -18 -39 -40
-72 -46 -69 -49 -94 -17 -130 28 -32 111 -49 187 -38 81 12 73 29 -15 29 -81
0 -127 21 -133 62 -3 21 56 122 72 122 5 0 45 -23 89 -51 76 -49 81 -51 108
-38 l29 14 -146 90 c-80 49 -147 93 -150 96 -8 13 38 80 51 75 7 -2 67 -39
134 -80 119 -75 137 -82 175 -67 15 6 -10 25 -125 96 -79 48 -148 91 -152 95
-5 4 -1 22 8 40 14 27 15 34 3 41 -21 14 -26 11 -44 -22z m-44 -62 c0 -22 -68
-114 -88 -119 -31 -9 -81 18 -88 47 -7 30 9 53 51 71 40 17 125 18 125 1z"/>
<path d="M6280 4951 c-12 -8 -8 -23 23 -92 20 -45 34 -85 31 -90 -13 -22 -33
-4 -57 51 -22 50 -31 60 -51 60 -15 0 -34 -12 -50 -30 -20 -25 -30 -29 -51
-24 -35 9 -71 -11 -90 -51 -19 -42 -20 -145 0 -171 13 -17 14 -14 10 35 -2 33
1 67 10 87 24 58 88 55 120 -6 33 -65 2 -107 -40 -54 l-23 29 -13 -28 c-16
-36 3 -58 51 -59 66 -2 94 88 49 161 -11 18 -18 40 -15 47 11 29 33 12 61 -47
16 -33 33 -63 37 -65 4 -3 24 2 44 11 20 8 38 14 38 13 1 -2 11 -24 24 -51 12
-26 22 -49 22 -51 0 -1 -65 -32 -145 -67 -112 -50 -147 -69 -151 -86 -3 -12
-4 -26 -2 -31 1 -5 71 22 153 59 83 37 155 68 161 69 6 0 16 -11 22 -25 12
-27 19 -30 40 -17 9 6 -12 61 -85 220 -53 117 -100 212 -103 212 -3 0 -12 -4
-20 -9z"/>
<path d="M546 4858 c-8 -18 -34 -77 -60 -130 -44 -94 -44 -98 -25 -108 17 -10
22 -5 49 55 16 36 32 65 35 65 5 0 86 -39 93 -45 2 -1 -5 -19 -14 -38 -14 -30
-15 -39 -4 -52 15 -18 76 -20 135 -4 126 33 145 40 145 55 0 12 -6 15 -22 10
-13 -4 -54 -15 -93 -25 l-70 -19 -6 37 c-3 20 -11 46 -19 58 -16 24 -79 63
-104 63 -20 0 -20 8 0 55 13 31 13 39 2 46 -21 14 -27 11 -42 -23z"/>
<path d="M370 4398 c-24 -84 -45 -161 -48 -171 -4 -15 0 -18 19 -15 17 2 26
12 33 38 5 19 10 36 11 37 1 3 118 -28 127 -33 6 -4 -18 -103 -28 -113 -3 -3
-35 3 -73 13 -63 16 -71 16 -99 2 -33 -17 -42 -34 -42 -76 0 -35 22 -53 62
-53 24 0 40 9 64 37 26 30 37 36 54 31 17 -5 20 -12 16 -31 -5 -20 -3 -24 14
-24 24 0 95 34 105 50 4 6 -7 15 -24 21 -17 6 -31 13 -31 16 0 18 33 113 39
113 4 0 30 -7 57 -15 27 -8 56 -15 64 -15 17 1 56 27 49 34 -2 3 -78 25 -167
49 -89 24 -164 46 -167 48 -2 3 1 24 7 48 8 32 15 41 27 38 9 -2 80 -22 159
-43 l143 -38 20 21 21 20 -119 32 c-244 67 -222 57 -216 97 5 29 3 34 -15 34
-17 0 -25 -20 -62 -152z m14 -289 c14 -12 -13 -39 -39 -39 -28 0 -49 24 -41
46 5 12 14 14 38 9 18 -4 37 -11 42 -16z"/>
<path d="M6495 4450 c-3 -5 4 -46 15 -91 12 -45 19 -87 16 -94 -2 -7 -16 -15
-31 -17 -23 -5 -33 3 -76 58 -58 74 -78 83 -122 57 -88 -52 -102 -164 -32
-257 14 -18 15 -18 39 2 l25 19 -21 19 c-45 40 -64 137 -32 168 33 34 48 24
148 -99 23 -29 25 -29 75 -19 28 6 51 8 51 5 0 -3 7 -28 15 -54 11 -37 11 -49
2 -52 -7 -2 -78 -20 -158 -41 -130 -32 -148 -39 -158 -61 -7 -14 -10 -27 -8
-29 1 -2 72 14 157 36 85 22 163 42 173 44 13 3 19 -3 24 -26 6 -31 28 -47 43
-32 5 5 6 23 1 39 -7 27 -3 35 49 86 82 81 97 158 38 202 -32 24 -75 17 -118
-20 -22 -18 -31 -21 -34 -11 -3 7 -15 50 -27 96 -20 76 -37 100 -54 72z m223
-219 c4 -37 -24 -87 -66 -118 l-30 -22 -17 68 c-20 81 -12 106 38 120 43 11
71 -6 75 -48z"/>
<path d="M355 3845 c-32 -31 -33 -74 -2 -103 50 -47 127 -15 127 51 0 69 -77
101 -125 52z"/>
<path d="M6448 3825 c-54 -30 -43 -112 18 -136 57 -21 118 44 94 100 -11 27
-47 51 -73 51 -7 -1 -24 -7 -39 -15z"/>
<path d="M589 3566 c-3 -2 -269 -15 -346 -16 -7 0 -13 -12 -13 -26 l0 -27 148
6 c81 4 168 7 195 7 46 0 47 1 47 30 0 26 -16 40 -31 26z"/>
<path d="M6274 3535 c-10 -25 4 -45 30 -45 28 0 37 17 24 43 -11 21 -46 23
-54 2z"/>
<path d="M6385 3519 c-4 -11 -5 -22 -3 -24 2 -2 67 -7 146 -11 l142 -7 0 25
c0 24 -3 25 -77 32 -42 3 -104 6 -139 6 -55 0 -63 -3 -69 -21z"/>
<path d="M6380 3403 c0 -31 -2 -33 -35 -33 -21 0 -35 -5 -35 -12 0 -22 16 -39
38 -41 16 -1 22 -8 22 -24 0 -16 6 -23 20 -23 13 0 20 7 20 20 0 19 4 20 98
14 68 -5 105 -3 121 5 43 24 51 101 10 101 -13 0 -19 -7 -19 -24 0 -33 -23
-39 -120 -30 l-80 7 0 36 c0 30 -4 37 -20 37 -16 0 -20 -7 -20 -33z"/>
<path d="M439 3416 c-2 -2 -40 -7 -84 -11 -117 -10 -123 -12 -117 -42 4 -23 8
-25 41 -20 128 20 155 20 184 -3 35 -27 37 -73 5 -94 -18 -11 -156 -36 -200
-36 -4 0 -8 -11 -8 -25 0 -29 2 -29 119 -15 46 6 97 18 113 26 53 27 61 103
16 151 -19 20 -19 23 -4 29 9 3 16 15 16 25 0 15 -7 19 -38 19 -21 0 -41 -2
-43 -4z"/>
<path d="M4625 3294 c-134 -33 -277 -127 -361 -237 -93 -123 -134 -246 -134
-402 0 -196 54 -329 190 -466 70 -71 100 -94 171 -128 192 -92 392 -94 577 -6
138 65 242 167 310 301 53 105 66 166 66 299 -1 105 -4 131 -29 205 -72 211
-240 370 -455 429 -89 25 -243 27 -335 5z"/>
<path d="M6415 3213 c-54 -13 -84 -77 -71 -148 5 -25 12 -35 26 -35 17 0 18 5
13 48 -6 54 11 82 50 82 20 0 22 -6 24 -55 1 -30 7 -64 13 -75 13 -25 61 -50
86 -45 10 2 22 4 27 4 4 1 16 10 27 21 22 22 29 103 10 115 -15 9 -12 25 5 25
9 0 15 9 15 24 0 22 -4 23 -82 30 -46 4 -92 8 -103 10 -11 2 -29 2 -40 -1z
m162 -88 c31 -35 19 -79 -24 -83 -23 -2 -35 3 -47 20 -16 23 -22 79 -9 92 13
12 57 -4 80 -29z"/>
<path d="M380 3099 c-103 -20 -149 -135 -80 -199 27 -25 28 -28 10 -33 -13 -3
-17 -11 -13 -26 3 -12 6 -21 7 -21 1 0 92 18 201 40 109 22 200 40 202 40 4 0
-7 42 -12 48 -3 4 -101 -14 -137 -24 -14 -4 -15 -1 -6 24 16 43 2 97 -33 126
-17 14 -39 26 -49 26 -10 0 -24 2 -32 4 -7 2 -33 0 -58 -5z m115 -74 c55 -54
21 -111 -77 -129 -98 -18 -147 85 -65 135 47 28 112 25 142 -6z"/>
<path d="M6355 2931 c-52 -22 -74 -83 -49 -133 17 -32 18 -32 -61 -13 -84 21
-95 19 -95 -9 0 -16 7 -25 23 -29 12 -3 100 -22 195 -43 146 -31 175 -35 183
-23 18 29 7 37 -78 55 -98 20 -135 45 -135 89 0 56 39 65 167 39 65 -13 79
-14 86 -2 18 28 6 36 -91 57 -110 23 -116 23 -145 12z"/>
<path d="M661 2816 c-9 -11 -10 -20 -1 -35 19 -36 64 -20 58 20 -4 28 -39 37
-57 15z"/>
<path d="M495 2774 c-49 -14 -107 -29 -127 -35 -38 -10 -45 -22 -29 -47 6 -10
33 -6 132 19 68 18 128 36 132 40 10 8 0 49 -11 48 -4 0 -47 -12 -97 -25z"/>
<path d="M603 2659 c-9 -9 -7 -19 8 -43 22 -35 25 -76 7 -94 -21 -21 -32 -13
-61 39 -36 65 -79 87 -132 65 -20 -9 -39 -26 -44 -40 -13 -34 4 -90 34 -114
19 -15 22 -21 11 -25 -14 -6 -11 -47 3 -47 3 0 49 14 101 31 101 33 127 50
141 87 19 49 -39 170 -68 141z m-80 -117 c25 -43 17 -62 -29 -62 -43 0 -74 23
-74 55 0 55 72 61 103 7z"/>
<path d="M6250 2603 c-48 -45 -59 -143 -16 -149 13 -2 17 3 13 17 -14 51 30
117 67 103 12 -5 14 -18 9 -69 -6 -61 -5 -65 25 -94 36 -36 89 -42 115 -13 26
28 37 68 27 100 -7 26 -5 31 12 35 12 4 18 12 16 23 -2 12 -31 25 -103 46 -55
15 -108 28 -117 28 -10 0 -31 -12 -48 -27z m165 -57 c42 -18 55 -55 31 -91
-42 -64 -110 12 -80 89 7 19 7 19 49 2z"/>
<path d="M6172 2396 c-10 -23 -5 -29 80 -95 49 -39 84 -71 76 -71 -7 1 -59 6
-115 13 -100 13 -102 12 -111 -8 -9 -19 0 -29 73 -91 46 -38 82 -70 80 -72 -3
-3 -102 10 -181 24 -25 5 -32 1 -41 -19 -14 -29 -16 -29 166 -48 95 -10 114
-10 122 2 16 26 9 35 -71 104 -70 60 -97 86 -72 72 4 -3 45 -8 92 -12 47 -3
92 -8 101 -11 10 -3 20 5 27 20 10 22 4 29 -81 102 -142 124 -132 117 -145 90z"/>
<path d="M583 2356 c-68 -28 -123 -54 -123 -57 0 -3 6 -13 13 -23 12 -17 18
-16 101 18 96 38 126 39 151 3 35 -51 11 -79 -109 -127 -68 -28 -82 -37 -78
-52 2 -10 8 -21 13 -24 18 -11 189 68 214 98 40 48 28 110 -29 147 -21 14 -24
20 -12 24 17 7 10 48 -8 46 -6 -1 -66 -24 -133 -53z"/>
<path d="M828 1976 c-92 -50 -168 -94 -168 -97 0 -3 6 -14 14 -24 13 -18 17
-17 87 22 41 22 115 62 164 88 50 26 93 51 97 54 4 3 -1 15 -10 27 -17 20 -18
20 -184 -70z"/>
<path d="M5982 1986 c-11 -24 -8 -27 46 -57 102 -57 122 -76 122 -114 0 -25
-6 -39 -24 -50 -28 -19 -54 -11 -158 50 -58 34 -63 36 -75 19 -7 -10 -13 -21
-13 -24 0 -3 37 -28 83 -54 87 -51 141 -66 175 -47 30 16 55 68 50 102 -4 24
-2 28 13 24 11 -4 22 1 28 14 12 21 4 27 -180 130 l-56 31 -11 -24z"/>
<path d="M848 1822 c-104 -65 -116 -76 -107 -93 14 -27 23 -24 96 21 87 55
103 60 140 45 35 -15 48 -54 26 -84 -7 -11 -47 -41 -88 -66 -75 -47 -87 -63
-62 -83 9 -8 34 3 97 42 95 59 128 102 116 150 -8 33 -52 76 -77 76 -11 0 -19
5 -19 10 0 6 5 10 10 10 14 0 12 26 -2 37 -9 7 -47 -12 -130 -65z"/>
<path d="M5712 1765 c-38 -32 -82 -119 -82 -162 0 -107 100 -203 210 -203 59
0 93 15 136 62 27 28 74 106 74 122 0 13 -152 118 -159 110 -4 -5 -22 -28 -39
-50 -29 -38 -30 -43 -16 -55 14 -11 20 -9 41 15 l24 28 40 -28 c22 -15 42 -31
45 -36 10 -16 -43 -84 -79 -101 -64 -31 -119 -18 -179 40 -65 64 -63 133 7
211 33 37 41 52 33 60 -17 17 -23 15 -56 -13z"/>
<path d="M1088 1604 c-32 -17 -42 -56 -28 -104 15 -51 12 -68 -10 -80 -28 -15
-53 1 -74 45 -18 36 -23 40 -43 27 -17 -11 17 -83 50 -105 38 -25 83 -22 112
8 27 26 30 50 14 108 -8 29 -7 42 2 53 19 24 52 12 69 -23 16 -34 37 -43 46
-19 7 19 -21 73 -45 85 -32 18 -66 19 -93 5z"/>
<path d="M1317 1473 c-13 -13 -19 -14 -30 -4 -14 11 -47 6 -47 -8 0 -4 6 -13
13 -20 10 -10 -1 -25 -54 -74 -98 -91 -106 -118 -54 -167 20 -19 27 -21 40
-10 14 12 14 15 0 30 -26 28 -17 46 52 109 l67 62 22 -28 c19 -24 24 -26 38
-14 15 13 15 16 -4 36 -25 27 -25 41 0 57 26 16 25 22 -4 36 -18 8 -27 7 -39
-5z"/>
<path d="M1471 1387 c-14 -17 -6 -43 16 -51 22 -9 45 13 41 38 -4 25 -40 33
-57 13z"/>
<path d="M5525 1370 c-19 -21 -18 -22 28 -116 26 -52 47 -96 47 -99 0 -3 -46
18 -101 46 l-102 51 -20 -21 c-12 -11 -19 -22 -16 -24 2 -2 60 -29 129 -59
143 -65 161 -83 143 -150 -9 -34 -8 -40 9 -49 24 -13 28 -10 38 36 11 49 -7
116 -71 263 -67 155 -62 147 -84 122z"/>
<path d="M1317 1222 c-99 -99 -101 -103 -61 -125 6 -3 52 39 103 94 77 83 91
102 81 114 -7 8 -15 15 -19 15 -3 0 -50 -44 -104 -98z"/>
<path d="M1545 1250 c-14 -15 -21 -17 -36 -7 -28 17 -50 -7 -27 -30 16 -15 13
-21 -42 -82 -32 -37 -63 -77 -68 -91 -12 -32 0 -64 32 -85 40 -27 62 0 30 36
-22 24 -13 43 51 114 l54 59 25 -23 c21 -20 28 -22 41 -11 14 12 13 16 -11 41
l-28 29 22 23 22 24 -24 11 c-20 9 -27 7 -41 -8z"/>
<path d="M5301 1166 c-7 -8 -10 -20 -6 -26 3 -6 -3 -10 -17 -10 -29 0 -83 -33
-97 -58 -28 -53 -16 -118 32 -169 38 -41 78 -57 121 -49 36 7 86 55 86 83 0
26 24 7 39 -31 13 -34 12 -39 -6 -64 -10 -15 -37 -36 -59 -47 -28 -14 -39 -25
-36 -37 2 -10 7 -18 12 -18 24 0 69 25 102 58 48 46 57 86 30 138 -21 41 -168
237 -181 242 -5 1 -14 -4 -20 -12z m47 -109 c59 -61 59 -130 -1 -151 -82 -29
-174 112 -107 166 34 28 71 23 108 -15z"/>
<path d="M1596 1029 c-74 -103 -82 -144 -38 -189 24 -24 39 -30 72 -30 36 0
40 -2 31 -18 -7 -14 -5 -21 9 -30 16 -10 27 1 95 96 43 58 79 111 81 117 4 9
-35 41 -40 33 -116 -171 -149 -195 -201 -144 -31 31 -25 51 46 148 40 56 48
72 38 84 -20 25 -33 16 -93 -67z"/>
<path d="M1943 954 c-4 -11 -13 -14 -30 -9 -29 7 -43 -20 -20 -38 14 -11 10
-22 -35 -99 -57 -100 -58 -126 -5 -158 28 -17 33 -18 47 -5 13 13 12 17 -8 31
-12 8 -22 22 -22 31 0 13 66 137 86 161 1 2 14 -4 29 -14 24 -15 28 -16 42 -2
14 15 13 18 -13 34 -16 10 -31 19 -33 21 -2 1 4 14 13 27 22 34 21 36 -14 36
-19 0 -33 -6 -37 -16z"/>
<path d="M4698 953 c-10 -2 -18 -8 -18 -13 0 -13 164 -370 170 -370 4 0 15 6
25 14 18 13 15 22 -66 195 -46 99 -86 180 -89 180 -3 -1 -13 -3 -22 -6z"/>
<path d="M4963 941 c-95 -44 -101 -170 -13 -245 83 -70 220 -5 220 104 0 41
-34 105 -70 132 -39 28 -88 32 -137 9z m106 -57 c41 -34 58 -91 40 -130 -42
-86 -169 -26 -169 80 0 72 70 100 129 50z"/>
<path d="M2045 779 c-97 -85 -83 -199 30 -250 52 -24 75 -24 75 -1 0 13 -12
22 -39 31 -22 6 -49 23 -60 38 -22 27 -28 78 -11 88 6 4 47 -12 91 -35 43 -22
83 -38 89 -35 15 9 32 84 25 115 -10 46 -48 73 -108 78 -50 4 -57 2 -92 -29z
m137 -26 c19 -17 25 -68 8 -78 -5 -3 -37 9 -72 26 l-62 31 23 19 c29 23 78 25
103 2z"/>
<path d="M4554 754 c-22 -7 -51 -27 -66 -44 -70 -77 1 -240 104 -240 104 0
171 97 134 194 -31 81 -97 116 -172 90z m91 -64 c37 -39 46 -114 18 -149 -25
-30 -74 -32 -104 -5 -53 48 -64 120 -24 159 33 34 74 33 110 -5z"/>
<path d="M2812 677 c-12 -13 -27 -38 -33 -56 -8 -24 -16 -31 -29 -28 -12 3
-20 -2 -23 -15 -4 -14 0 -22 14 -25 10 -3 19 -6 19 -7 0 0 -11 -51 -24 -113
-13 -62 -21 -114 -18 -118 3 -3 15 -5 27 -5 19 0 24 11 44 114 l24 114 33 -5
c29 -5 34 -3 34 14 0 15 -9 22 -31 27 -26 5 -29 9 -24 28 13 42 37 60 71 53
26 -4 32 -2 37 14 10 39 -86 45 -121 8z"/>
<path d="M3809 683 c-16 -4 -11 -39 52 -350 10 -52 20 -61 47 -44 12 7 11 22
-3 91 -9 45 -14 93 -11 106 9 33 49 58 82 50 31 -8 47 -44 64 -149 12 -72 14
-77 34 -71 12 4 23 8 25 10 7 6 -21 158 -35 195 -15 36 -58 69 -92 69 -10 0
-36 -11 -57 -25 -20 -15 -38 -25 -40 -23 -1 2 -8 36 -15 76 -7 39 -18 71 -24
71 -6 -1 -18 -3 -27 -6z"/>
<path d="M2996 653 c-3 -3 -6 -14 -6 -23 0 -14 13 -19 59 -24 l60 -7 -5 -32
c-7 -55 -24 -249 -24 -278 0 -18 6 -28 20 -32 11 -3 22 -2 24 2 3 4 10 56 16
117 6 60 12 127 15 149 2 22 4 47 4 55 1 12 13 14 61 12 54 -3 60 -2 60 16 0
22 -22 27 -175 38 -49 4 -93 8 -96 10 -3 2 -9 1 -13 -3z"/>
<path d="M4218 629 c-26 -25 -33 -28 -40 -16 -5 9 -16 13 -28 10 -11 -3 -20
-6 -20 -7 0 0 18 -59 39 -131 37 -127 49 -146 78 -127 10 6 7 30 -14 101 -24
84 -25 96 -12 119 8 14 26 29 41 33 45 12 69 -17 98 -118 25 -86 39 -103 67
-85 19 12 -34 187 -68 223 -39 42 -99 41 -141 -2z"/>
<path d="M2462 630 c-37 -23 -71 -88 -72 -135 0 -104 124 -171 210 -112 62 41
89 135 57 197 -33 64 -130 89 -195 50z m128 -40 c43 -43 33 -119 -21 -165 -38
-31 -60 -32 -96 -1 -22 19 -27 31 -26 64 2 46 25 96 50 111 29 17 71 13 93 -9z"/>
<path d="M3656 540 c-16 -5 -42 -21 -58 -37 -77 -74 -46 -217 53 -243 60 -16
144 5 133 34 -4 11 -18 13 -59 9 -50 -5 -56 -4 -84 25 -35 35 -41 83 -16 132
17 32 43 44 98 42 30 -2 37 2 37 17 0 28 -47 38 -104 21z"/>
<path d="M3340 523 c-35 -13 -69 -57 -80 -105 -24 -99 34 -178 130 -178 64 0
90 9 90 31 0 16 -6 18 -45 12 -72 -9 -125 22 -125 74 0 17 8 18 95 15 l95 -4
0 36 c0 44 -21 89 -52 110 -22 16 -78 20 -108 9z m90 -53 c11 -11 20 -29 20
-40 0 -18 -7 -20 -70 -20 -78 0 -85 8 -49 54 25 32 70 35 99 6z"/>
</g>
</svg>
