<svg width="28" height="28" viewBox="0 0 28 28" fill="none" xmlns="http://www.w3.org/2000/svg">
<path fill-rule="evenodd" clip-rule="evenodd" d="M19.4398 27.3334H8.5465C3.83984 27.3334 0.666504 24.3054 0.666504 19.7867V8.22669C0.666504 3.70669 3.83984 0.666687 8.5465 0.666687H19.4398C24.1598 0.666687 27.3332 3.70669 27.3332 8.22669V19.7867C27.3332 24.3054 24.1598 27.3334 19.4398 27.3334ZM17.0265 13H8.55981C7.99981 13 7.55981 13.4534 7.55981 14C7.55981 14.56 7.99981 15 8.55981 15H17.0265L13.7198 18.2934C13.5331 18.48 13.4265 18.7467 13.4265 19C13.4265 19.252 13.5331 19.5067 13.7198 19.7067C14.1065 20.0934 14.7465 20.0934 15.1331 19.7067L20.1598 14.7067C20.5331 14.3334 20.5331 13.6667 20.1598 13.2934L15.1331 8.29335C14.7465 7.90669 14.1065 7.90669 13.7198 8.29335C13.3331 8.69335 13.3331 9.32002 13.7198 9.72002L17.0265 13Z" fill="#9FABB7"/>
</svg>
